<svg width="60" height="60" viewBox="0 0 60 60" fill="none" xmlns="http://www.w3.org/2000/svg">
<g clip-path="url(#clip0_2577_530)">
<path d="M48.4299 19.2496C46.9183 19.2496 45.4124 18.6215 44.3343 17.3986C43.8619 16.8649 43.3618 16.348 42.8394 15.8755C40.6166 13.8466 40.4554 10.3947 42.4838 8.17121C44.5121 5.94775 47.9631 5.78655 50.1859 7.81545C51.0028 8.56031 51.7919 9.36076 52.5254 10.1946C54.5149 12.4569 54.2926 15.9033 52.0309 17.8933C50.9972 18.8049 49.708 19.2496 48.4299 19.2496Z" fill="#F75708"/>
<path d="M29.9972 60.0008C22.3117 60.0008 14.6318 57.077 8.78577 51.2237C3.11753 45.5595 0 38.022 0 30.012C0 22.002 3.11753 14.4589 8.78577 8.78907C15.1764 2.39663 24.0067 -0.75512 33.0092 0.156497C36.0044 0.456664 38.1939 3.13037 37.8883 6.13204C37.5882 9.12814 34.9152 11.3127 31.9144 11.0125C26.185 10.44 20.5613 12.4411 16.4935 16.51C12.8869 20.1176 10.903 24.9147 10.903 30.012C10.903 35.1092 12.8869 39.9063 16.4935 43.5139C23.94 50.9569 36.0489 50.9569 43.4898 43.5139C47.6299 39.3783 49.6193 33.664 48.958 27.8385C48.619 24.8424 50.7696 22.1409 53.7594 21.8018C56.7491 21.4628 59.4554 23.614 59.7944 26.6045C60.8335 35.754 57.7049 44.7257 51.2031 51.2293C45.357 57.077 37.6716 60.0008 29.9917 60.0064L29.9972 60.0008Z" fill="black"/>
</g>
<defs>
<clipPath id="clip0_2577_530">
<rect width="60" height="60" fill="white"/>
</clipPath>
</defs>
</svg>
